<svg xmlns="http://www.w3.org/2000/svg" xmlns:xlink="http://www.w3.org/1999/xlink" width="1080" zoomAndPan="magnify" viewBox="0 0 810 1012.49997" height="1350" preserveAspectRatio="xMidYMid meet" version="1.0"><defs><g/></defs><g fill="#4169e1" fill-opacity="1"><g transform="translate(145.807794, 527.116792)"><g><path d="M 6.171875 0 L 6.171875 -86.5625 L 82.6875 -86.5625 L 82.6875 -64.1875 L 35.296875 -64.1875 L 35.296875 -48.71875 L 75.4375 -48.71875 L 75.4375 -29.859375 L 35.296875 -29.859375 L 35.296875 0 Z M 6.171875 0 "/></g></g></g><g fill="#4169e1" fill-opacity="1"><g transform="translate(230.667967, 527.116792)"><g><path d="M 45.328125 2.171875 C 36.710938 2.171875 29.179688 0.800781 22.734375 -1.9375 C 16.285156 -4.675781 11.285156 -8.5625 7.734375 -13.59375 C 4.191406 -18.632812 2.421875 -24.5 2.421875 -31.1875 C 2.421875 -37.957031 4.191406 -43.835938 7.734375 -48.828125 C 11.285156 -53.828125 16.285156 -57.71875 22.734375 -60.5 C 29.179688 -63.28125 36.710938 -64.671875 45.328125 -64.671875 C 53.953125 -64.671875 61.46875 -63.28125 67.875 -60.5 C 74.28125 -57.71875 79.253906 -53.828125 82.796875 -48.828125 C 86.347656 -43.835938 88.125 -37.957031 88.125 -31.1875 C 88.125 -24.5 86.347656 -18.632812 82.796875 -13.59375 C 79.253906 -8.5625 74.28125 -4.675781 67.875 -1.9375 C 61.46875 0.800781 53.953125 2.171875 45.328125 2.171875 Z M 45.328125 -15.71875 C 50.492188 -15.71875 54.585938 -17.125 57.609375 -19.9375 C 60.628906 -22.757812 62.140625 -26.507812 62.140625 -31.1875 C 62.140625 -35.945312 60.628906 -39.710938 57.609375 -42.484375 C 54.585938 -45.265625 50.492188 -46.65625 45.328125 -46.65625 C 40.171875 -46.65625 36.0625 -45.265625 33 -42.484375 C 29.9375 -39.710938 28.40625 -35.945312 28.40625 -31.1875 C 28.40625 -26.507812 29.9375 -22.757812 33 -19.9375 C 36.0625 -17.125 40.171875 -15.71875 45.328125 -15.71875 Z M 45.328125 -15.71875 "/></g></g></g><g fill="#4169e1" fill-opacity="1"><g transform="translate(321.209648, 527.116792)"><g><path d="M 45.328125 2.171875 C 36.710938 2.171875 29.179688 0.800781 22.734375 -1.9375 C 16.285156 -4.675781 11.285156 -8.5625 7.734375 -13.59375 C 4.191406 -18.632812 2.421875 -24.5 2.421875 -31.1875 C 2.421875 -37.957031 4.191406 -43.835938 7.734375 -48.828125 C 11.285156 -53.828125 16.285156 -57.71875 22.734375 -60.5 C 29.179688 -63.28125 36.710938 -64.671875 45.328125 -64.671875 C 53.953125 -64.671875 61.46875 -63.28125 67.875 -60.5 C 74.28125 -57.71875 79.253906 -53.828125 82.796875 -48.828125 C 86.347656 -43.835938 88.125 -37.957031 88.125 -31.1875 C 88.125 -24.5 86.347656 -18.632812 82.796875 -13.59375 C 79.253906 -8.5625 74.28125 -4.675781 67.875 -1.9375 C 61.46875 0.800781 53.953125 2.171875 45.328125 2.171875 Z M 45.328125 -15.71875 C 50.492188 -15.71875 54.585938 -17.125 57.609375 -19.9375 C 60.628906 -22.757812 62.140625 -26.507812 62.140625 -31.1875 C 62.140625 -35.945312 60.628906 -39.710938 57.609375 -42.484375 C 54.585938 -45.265625 50.492188 -46.65625 45.328125 -46.65625 C 40.171875 -46.65625 36.0625 -45.265625 33 -42.484375 C 29.9375 -39.710938 28.40625 -35.945312 28.40625 -31.1875 C 28.40625 -26.507812 29.9375 -22.757812 33 -19.9375 C 36.0625 -17.125 40.171875 -15.71875 45.328125 -15.71875 Z M 45.328125 -15.71875 "/></g></g></g><g fill="#4169e1" fill-opacity="1"><g transform="translate(411.751328, 527.116792)"><g><path d="M 44.609375 2.171875 C 35.335938 2.171875 28.082031 -0.0195312 22.84375 -4.40625 C 17.601562 -8.800781 14.945312 -14.785156 14.875 -22.359375 L 14.875 -44.96875 L 0.96875 -44.96875 L 0.96875 -62.375 L 14.875 -62.375 L 14.875 -78.828125 L 41.109375 -84.015625 L 40.984375 -62.375 L 71.5625 -62.375 L 71.5625 -44.96875 L 40.984375 -44.96875 L 41.109375 -27.5625 C 41.109375 -24.09375 42.050781 -21.429688 43.9375 -19.578125 C 45.832031 -17.722656 48.472656 -16.796875 51.859375 -16.796875 C 55.242188 -16.796875 58.242188 -17.398438 60.859375 -18.609375 C 63.484375 -19.828125 66.125 -21.679688 68.78125 -24.171875 L 73.984375 -7.859375 C 66.242188 -1.171875 56.453125 2.171875 44.609375 2.171875 Z M 44.609375 2.171875 "/></g></g></g><g fill="#4169e1" fill-opacity="1"><g transform="translate(487.424364, 527.116792)"><g><path d="M 49.078125 2.171875 C 39.890625 2.171875 31.789062 0.78125 24.78125 -2 C 17.769531 -4.78125 12.289062 -8.6875 8.34375 -13.71875 C 4.394531 -18.757812 2.421875 -24.625 2.421875 -31.3125 C 2.421875 -37.914062 4.191406 -43.71875 7.734375 -48.71875 C 11.285156 -53.71875 16.222656 -57.625 22.546875 -60.4375 C 28.867188 -63.257812 36.179688 -64.671875 44.484375 -64.671875 C 52.628906 -64.671875 59.703125 -63.34375 65.703125 -60.6875 C 71.703125 -58.03125 76.375 -54.28125 79.71875 -49.4375 C 83.070312 -44.601562 84.75 -38.925781 84.75 -32.40625 C 84.75 -31.1875 84.6875 -29.910156 84.5625 -28.578125 C 84.4375 -27.253906 84.175781 -26.03125 83.78125 -24.90625 L 29.734375 -24.90625 C 30.785156 -21.28125 33.242188 -18.578125 37.109375 -16.796875 C 40.984375 -15.023438 45.5 -14.140625 50.65625 -14.140625 C 55.40625 -14.140625 60.015625 -14.742188 64.484375 -15.953125 C 68.960938 -17.160156 72.453125 -18.734375 74.953125 -20.671875 L 84.75 -8.46875 C 81.28125 -5.320312 76.320312 -2.757812 69.875 -0.78125 C 63.425781 1.1875 56.492188 2.171875 49.078125 2.171875 Z M 29.375 -37 L 58.390625 -37 C 58.304688 -40.539062 56.9375 -43.414062 54.28125 -45.625 C 51.625 -47.84375 48.316406 -48.953125 44.359375 -48.953125 C 40.410156 -48.953125 37.023438 -47.84375 34.203125 -45.625 C 31.390625 -43.414062 29.78125 -40.539062 29.375 -37 Z M 29.375 -37 "/></g></g></g><g fill="#4169e1" fill-opacity="1"><g transform="translate(575.66923, 527.116792)"><g><path d="M 0.125 0 L 27.5625 -32.40625 L 1.09375 -62.375 L 29.5 -62.375 L 44.25 -44.125 L 59 -62.375 L 87.53125 -62.375 L 60.5625 -32.40625 L 88.375 0 L 59.234375 0 L 44.25 -18.734375 L 29.25 0 Z M 0.125 0 "/></g></g></g><g fill="#000000" fill-opacity="1"><g transform="translate(364.410429, 556.265222)"><g><path d="M 0.8125 -8.875 L 0.84375 -14.671875 L 1.65625 -14.671875 L 1.65625 -8.875 Z M 3.28125 -8.875 L 3.296875 -14.671875 L 4.09375 -14.671875 L 4.09375 -8.875 Z M 3.28125 -8.875 "/></g></g></g><g fill="#000000" fill-opacity="1"><g transform="translate(369.345886, 556.265222)"><g><path d="M 8.484375 0.46875 C 7.273438 0.46875 6.128906 0.328125 5.046875 0.046875 C 3.972656 -0.234375 3.035156 -0.644531 2.234375 -1.1875 C 1.429688 -1.726562 0.835938 -2.398438 0.453125 -3.203125 L 3.34375 -5.1875 C 3.664062 -4.71875 4.109375 -4.304688 4.671875 -3.953125 C 5.242188 -3.597656 5.878906 -3.320312 6.578125 -3.125 C 7.285156 -2.925781 8.007812 -2.828125 8.75 -2.828125 C 9.632812 -2.828125 10.335938 -2.945312 10.859375 -3.1875 C 11.378906 -3.4375 11.640625 -3.765625 11.640625 -4.171875 C 11.640625 -4.515625 11.429688 -4.789062 11.015625 -5 C 10.597656 -5.21875 9.925781 -5.390625 9 -5.515625 L 6.703125 -5.8125 C 4.640625 -6.09375 3.140625 -6.582031 2.203125 -7.28125 C 1.265625 -7.988281 0.796875 -8.976562 0.796875 -10.25 C 0.804688 -11.28125 1.132812 -12.160156 1.78125 -12.890625 C 2.4375 -13.617188 3.332031 -14.175781 4.46875 -14.5625 C 5.613281 -14.957031 6.925781 -15.15625 8.40625 -15.15625 C 9.445312 -15.15625 10.425781 -15.03125 11.34375 -14.78125 C 12.269531 -14.53125 13.082031 -14.175781 13.78125 -13.71875 C 14.476562 -13.257812 15.003906 -12.710938 15.359375 -12.078125 L 12.65625 -10.09375 C 12.21875 -10.664062 11.609375 -11.113281 10.828125 -11.4375 C 10.054688 -11.769531 9.238281 -11.9375 8.375 -11.9375 C 7.5625 -11.925781 6.894531 -11.800781 6.375 -11.5625 C 5.863281 -11.320312 5.609375 -11.003906 5.609375 -10.609375 C 5.609375 -10.304688 5.789062 -10.0625 6.15625 -9.875 C 6.53125 -9.6875 7.128906 -9.535156 7.953125 -9.421875 L 10.265625 -9.140625 C 12.410156 -8.878906 13.96875 -8.390625 14.9375 -7.671875 C 15.914062 -6.953125 16.40625 -5.9375 16.40625 -4.625 C 16.40625 -3.570312 16.070312 -2.664062 15.40625 -1.90625 C 14.75 -1.144531 13.828125 -0.554688 12.640625 -0.140625 C 11.453125 0.265625 10.066406 0.46875 8.484375 0.46875 Z M 8.484375 0.46875 "/></g></g></g><g fill="#000000" fill-opacity="1"><g transform="translate(386.077292, 556.265222)"><g><path d="M 7.5625 0.375 C 5.988281 0.375 4.757812 0.00390625 3.875 -0.734375 C 2.988281 -1.484375 2.535156 -2.503906 2.515625 -3.796875 L 2.515625 -7.625 L 0.15625 -7.625 L 0.15625 -10.5625 L 2.515625 -10.5625 L 2.515625 -13.359375 L 6.96875 -14.234375 L 6.9375 -10.5625 L 12.125 -10.5625 L 12.125 -7.625 L 6.9375 -7.625 L 6.96875 -4.671875 C 6.96875 -4.085938 7.125 -3.632812 7.4375 -3.3125 C 7.757812 -3 8.207031 -2.84375 8.78125 -2.84375 C 9.351562 -2.84375 9.863281 -2.945312 10.3125 -3.15625 C 10.757812 -3.363281 11.207031 -3.675781 11.65625 -4.09375 L 12.53125 -1.328125 C 11.21875 -0.191406 9.5625 0.375 7.5625 0.375 Z M 7.5625 0.375 "/></g></g></g><g fill="#000000" fill-opacity="1"><g transform="translate(398.897195, 556.265222)"><g><path d="M 5.90625 4.671875 C 5.09375 4.671875 4.289062 4.597656 3.5 4.453125 C 2.707031 4.304688 1.96875 4.109375 1.28125 3.859375 C 0.601562 3.609375 0.0234375 3.316406 -0.453125 2.984375 L 0.8125 -0.109375 C 1.457031 0.316406 2.207031 0.660156 3.0625 0.921875 C 3.914062 1.191406 4.738281 1.328125 5.53125 1.328125 C 6.789062 1.328125 7.789062 1.050781 8.53125 0.5 C 9.269531 -0.0507812 9.640625 -0.785156 9.640625 -1.703125 L 9.640625 -2.578125 L 9.625 -2.578125 C 9.320312 -1.765625 8.785156 -1.117188 8.015625 -0.640625 C 7.253906 -0.160156 6.378906 0.078125 5.390625 0.078125 C 4.441406 0.078125 3.617188 -0.113281 2.921875 -0.5 C 2.234375 -0.882812 1.703125 -1.421875 1.328125 -2.109375 C 0.953125 -2.804688 0.765625 -3.613281 0.765625 -4.53125 L 0.765625 -10.5625 L 5.203125 -10.5625 L 5.203125 -5.21875 C 5.203125 -4.519531 5.382812 -3.957031 5.75 -3.53125 C 6.125 -3.113281 6.625 -2.90625 7.25 -2.90625 C 7.976562 -2.90625 8.554688 -3.132812 8.984375 -3.59375 C 9.421875 -4.050781 9.640625 -4.660156 9.640625 -5.421875 L 9.640625 -10.5625 L 14.09375 -10.5625 L 14.09375 -1.515625 C 14.09375 -0.273438 13.75 0.804688 13.0625 1.734375 C 12.382812 2.671875 11.429688 3.394531 10.203125 3.90625 C 8.984375 4.414062 7.550781 4.671875 5.90625 4.671875 Z M 5.90625 4.671875 "/></g></g></g><g fill="#000000" fill-opacity="1"><g transform="translate(413.765007, 556.265222)"><g><path d="M 0.765625 0 L 0.765625 -15.28125 L 5.203125 -15.28125 L 5.203125 0 Z M 0.765625 0 "/></g></g></g><g fill="#000000" fill-opacity="1"><g transform="translate(419.724418, 556.265222)"><g><path d="M 8.3125 0.375 C 6.757812 0.375 5.390625 0.140625 4.203125 -0.328125 C 3.015625 -0.804688 2.082031 -1.472656 1.40625 -2.328125 C 0.738281 -3.179688 0.40625 -4.175781 0.40625 -5.3125 C 0.40625 -6.425781 0.707031 -7.40625 1.3125 -8.25 C 1.914062 -9.101562 2.75 -9.765625 3.8125 -10.234375 C 4.882812 -10.710938 6.125 -10.953125 7.53125 -10.953125 C 8.914062 -10.953125 10.113281 -10.726562 11.125 -10.28125 C 12.144531 -9.832031 12.9375 -9.195312 13.5 -8.375 C 14.070312 -7.5625 14.359375 -6.597656 14.359375 -5.484375 C 14.359375 -5.285156 14.347656 -5.070312 14.328125 -4.84375 C 14.304688 -4.613281 14.265625 -4.40625 14.203125 -4.21875 L 5.046875 -4.21875 C 5.222656 -3.601562 5.632812 -3.144531 6.28125 -2.84375 C 6.9375 -2.539062 7.703125 -2.390625 8.578125 -2.390625 C 9.390625 -2.390625 10.171875 -2.492188 10.921875 -2.703125 C 11.679688 -2.910156 12.273438 -3.175781 12.703125 -3.5 L 14.359375 -1.4375 C 13.773438 -0.90625 12.9375 -0.46875 11.84375 -0.125 C 10.75 0.207031 9.570312 0.375 8.3125 0.375 Z M 4.984375 -6.265625 L 9.890625 -6.265625 C 9.878906 -6.867188 9.644531 -7.359375 9.1875 -7.734375 C 8.738281 -8.109375 8.179688 -8.296875 7.515625 -8.296875 C 6.847656 -8.296875 6.273438 -8.109375 5.796875 -7.734375 C 5.316406 -7.359375 5.046875 -6.867188 4.984375 -6.265625 Z M 4.984375 -6.265625 "/></g></g></g><g fill="#000000" fill-opacity="1"><g transform="translate(434.67414, 556.265222)"><g><path d="M 2.953125 0.203125 C 2.242188 0.203125 1.65625 -0.00390625 1.1875 -0.421875 C 0.71875 -0.835938 0.484375 -1.363281 0.484375 -2 C 0.484375 -2.65625 0.71875 -3.191406 1.1875 -3.609375 C 1.65625 -4.023438 2.242188 -4.234375 2.953125 -4.234375 C 3.671875 -4.234375 4.257812 -4.023438 4.71875 -3.609375 C 5.175781 -3.191406 5.40625 -2.65625 5.40625 -2 C 5.40625 -1.363281 5.175781 -0.835938 4.71875 -0.421875 C 4.257812 -0.00390625 3.671875 0.203125 2.953125 0.203125 Z M 2.953125 0.203125 "/></g></g></g><g fill="#000000" fill-opacity="1"><g transform="translate(440.572121, 556.265222)"><g/></g></g><g fill="#000000" fill-opacity="1"><g transform="translate(444.954645, 556.265222)"><g><path d="M 9.96875 0.4375 C 8.070312 0.4375 6.421875 0.125 5.015625 -0.5 C 3.609375 -1.132812 2.519531 -2.03125 1.75 -3.1875 C 0.988281 -4.351562 0.609375 -5.734375 0.609375 -7.328125 C 0.609375 -8.910156 0.96875 -10.285156 1.6875 -11.453125 C 2.414062 -12.628906 3.445312 -13.535156 4.78125 -14.171875 C 6.113281 -14.804688 7.6875 -15.125 9.5 -15.125 C 10.925781 -15.125 12.210938 -14.898438 13.359375 -14.453125 C 14.503906 -14.003906 15.453125 -13.375 16.203125 -12.5625 C 16.953125 -11.75 17.441406 -10.789062 17.671875 -9.6875 L 13.1875 -8.671875 C 12.96875 -9.472656 12.539062 -10.113281 11.90625 -10.59375 C 11.269531 -11.070312 10.488281 -11.3125 9.5625 -11.3125 C 8.351562 -11.3125 7.378906 -10.953125 6.640625 -10.234375 C 5.910156 -9.515625 5.546875 -8.546875 5.546875 -7.328125 C 5.546875 -6.128906 5.957031 -5.164062 6.78125 -4.4375 C 7.601562 -3.71875 8.703125 -3.359375 10.078125 -3.359375 C 11.210938 -3.359375 12.164062 -3.640625 12.9375 -4.203125 C 13.71875 -4.773438 14.195312 -5.539062 14.375 -6.5 L 18.953125 -5.796875 C 18.753906 -4.523438 18.253906 -3.421875 17.453125 -2.484375 C 16.660156 -1.546875 15.625 -0.820312 14.34375 -0.3125 C 13.070312 0.1875 11.613281 0.4375 9.96875 0.4375 Z M 9.96875 0.4375 "/></g></g></g><g fill="#000000" fill-opacity="1"><g transform="translate(464.225463, 556.265222)"><g><path d="M 7.6875 0.375 C 6.21875 0.375 4.9375 0.140625 3.84375 -0.328125 C 2.757812 -0.796875 1.914062 -1.453125 1.3125 -2.296875 C 0.707031 -3.148438 0.40625 -4.144531 0.40625 -5.28125 C 0.40625 -6.425781 0.707031 -7.421875 1.3125 -8.265625 C 1.914062 -9.117188 2.757812 -9.78125 3.84375 -10.25 C 4.9375 -10.71875 6.21875 -10.953125 7.6875 -10.953125 C 9.144531 -10.953125 10.414062 -10.71875 11.5 -10.25 C 12.582031 -9.78125 13.425781 -9.117188 14.03125 -8.265625 C 14.632812 -7.421875 14.9375 -6.425781 14.9375 -5.28125 C 14.9375 -4.144531 14.632812 -3.148438 14.03125 -2.296875 C 13.425781 -1.453125 12.582031 -0.796875 11.5 -0.328125 C 10.414062 0.140625 9.144531 0.375 7.6875 0.375 Z M 7.6875 -2.65625 C 8.5625 -2.65625 9.253906 -2.894531 9.765625 -3.375 C 10.273438 -3.851562 10.53125 -4.488281 10.53125 -5.28125 C 10.53125 -6.09375 10.273438 -6.734375 9.765625 -7.203125 C 9.253906 -7.671875 8.5625 -7.90625 7.6875 -7.90625 C 6.8125 -7.90625 6.113281 -7.671875 5.59375 -7.203125 C 5.070312 -6.734375 4.8125 -6.09375 4.8125 -5.28125 C 4.8125 -4.488281 5.070312 -3.851562 5.59375 -3.375 C 6.113281 -2.894531 6.8125 -2.65625 7.6875 -2.65625 Z M 7.6875 -2.65625 "/></g></g></g><g fill="#000000" fill-opacity="1"><g transform="translate(479.564296, 556.265222)"><g><path d="M 0.765625 0 L 0.765625 -10.5625 L 4.390625 -10.5625 L 5.015625 -8.125 L 5.046875 -8.125 C 5.421875 -8.976562 6.007812 -9.648438 6.8125 -10.140625 C 7.613281 -10.628906 8.519531 -10.875 9.53125 -10.875 C 10.550781 -10.875 11.390625 -10.628906 12.046875 -10.140625 C 12.703125 -9.660156 13.160156 -8.976562 13.421875 -8.09375 L 13.4375 -8.09375 C 13.863281 -8.976562 14.484375 -9.660156 15.296875 -10.140625 C 16.117188 -10.628906 17.03125 -10.875 18.03125 -10.875 C 19.300781 -10.875 20.289062 -10.488281 21 -9.71875 C 21.71875 -8.957031 22.078125 -7.929688 22.078125 -6.640625 L 22.078125 0 L 17.640625 0 L 17.640625 -5.78125 C 17.640625 -6.375 17.476562 -6.835938 17.15625 -7.171875 C 16.832031 -7.515625 16.382812 -7.6875 15.8125 -7.6875 C 15.132812 -7.6875 14.601562 -7.472656 14.21875 -7.046875 C 13.832031 -6.617188 13.640625 -6.039062 13.640625 -5.3125 L 13.640625 0 L 9.203125 0 L 9.203125 -5.78125 C 9.203125 -6.375 9.039062 -6.835938 8.71875 -7.171875 C 8.394531 -7.515625 7.953125 -7.6875 7.390625 -7.6875 C 6.691406 -7.6875 6.148438 -7.472656 5.765625 -7.046875 C 5.390625 -6.617188 5.203125 -6.039062 5.203125 -5.3125 L 5.203125 0 Z M 0.765625 0 "/></g></g></g><g fill="#000000" fill-opacity="1"><g transform="translate(502.296074, 556.265222)"><g><path d="M 2.515625 0 L 2.5 -7.625 L 0.15625 -7.625 L 0.15625 -10.5625 L 2.5 -10.5625 L 2.5 -11.34375 C 2.5 -12.695312 2.960938 -13.75 3.890625 -14.5 C 4.816406 -15.25 6.109375 -15.625 7.765625 -15.625 C 8.585938 -15.625 9.382812 -15.507812 10.15625 -15.28125 C 10.9375 -15.0625 11.617188 -14.75 12.203125 -14.34375 L 11.328125 -11.578125 C 10.941406 -11.847656 10.519531 -12.0625 10.0625 -12.21875 C 9.601562 -12.375 9.15625 -12.453125 8.71875 -12.453125 C 8.175781 -12.453125 7.742188 -12.320312 7.421875 -12.0625 C 7.097656 -11.800781 6.9375 -11.441406 6.9375 -10.984375 L 6.9375 -10.5625 L 11.46875 -10.5625 L 11.46875 -7.625 L 6.9375 -7.625 L 6.9375 0 Z M 2.515625 0 "/></g></g></g><g fill="#000000" fill-opacity="1"><g transform="translate(514.317287, 556.265222)"><g><path d="M 7.6875 0.375 C 6.21875 0.375 4.9375 0.140625 3.84375 -0.328125 C 2.757812 -0.796875 1.914062 -1.453125 1.3125 -2.296875 C 0.707031 -3.148438 0.40625 -4.144531 0.40625 -5.28125 C 0.40625 -6.425781 0.707031 -7.421875 1.3125 -8.265625 C 1.914062 -9.117188 2.757812 -9.78125 3.84375 -10.25 C 4.9375 -10.71875 6.21875 -10.953125 7.6875 -10.953125 C 9.144531 -10.953125 10.414062 -10.71875 11.5 -10.25 C 12.582031 -9.78125 13.425781 -9.117188 14.03125 -8.265625 C 14.632812 -7.421875 14.9375 -6.425781 14.9375 -5.28125 C 14.9375 -4.144531 14.632812 -3.148438 14.03125 -2.296875 C 13.425781 -1.453125 12.582031 -0.796875 11.5 -0.328125 C 10.414062 0.140625 9.144531 0.375 7.6875 0.375 Z M 7.6875 -2.65625 C 8.5625 -2.65625 9.253906 -2.894531 9.765625 -3.375 C 10.273438 -3.851562 10.53125 -4.488281 10.53125 -5.28125 C 10.53125 -6.09375 10.273438 -6.734375 9.765625 -7.203125 C 9.253906 -7.671875 8.5625 -7.90625 7.6875 -7.90625 C 6.8125 -7.90625 6.113281 -7.671875 5.59375 -7.203125 C 5.070312 -6.734375 4.8125 -6.09375 4.8125 -5.28125 C 4.8125 -4.488281 5.070312 -3.851562 5.59375 -3.375 C 6.113281 -2.894531 6.8125 -2.65625 7.6875 -2.65625 Z M 7.6875 -2.65625 "/></g></g></g><g fill="#000000" fill-opacity="1"><g transform="translate(529.656121, 556.265222)"><g><path d="M 8.71875 -10.875 C 9.769531 -10.875 10.640625 -10.488281 11.328125 -9.71875 C 12.015625 -8.957031 12.40625 -7.914062 12.5 -6.59375 L 8.578125 -5.734375 C 8.554688 -6.429688 8.398438 -6.976562 8.109375 -7.375 C 7.828125 -7.78125 7.457031 -7.984375 7 -7.984375 C 6.457031 -7.984375 6.019531 -7.738281 5.6875 -7.25 C 5.363281 -6.769531 5.203125 -6.109375 5.203125 -5.265625 L 5.203125 0 L 0.765625 0 L 0.765625 -10.5625 L 4.390625 -10.5625 L 5.015625 -8.453125 L 5.046875 -8.453125 C 5.378906 -9.210938 5.875 -9.804688 6.53125 -10.234375 C 7.195312 -10.660156 7.925781 -10.875 8.71875 -10.875 Z M 8.71875 -10.875 "/></g></g></g><g fill="#000000" fill-opacity="1"><g transform="translate(542.353152, 556.265222)"><g><path d="M 7.5625 0.375 C 5.988281 0.375 4.757812 0.00390625 3.875 -0.734375 C 2.988281 -1.484375 2.535156 -2.503906 2.515625 -3.796875 L 2.515625 -7.625 L 0.15625 -7.625 L 0.15625 -10.5625 L 2.515625 -10.5625 L 2.515625 -13.359375 L 6.96875 -14.234375 L 6.9375 -10.5625 L 12.125 -10.5625 L 12.125 -7.625 L 6.9375 -7.625 L 6.96875 -4.671875 C 6.96875 -4.085938 7.125 -3.632812 7.4375 -3.3125 C 7.757812 -3 8.207031 -2.84375 8.78125 -2.84375 C 9.351562 -2.84375 9.863281 -2.945312 10.3125 -3.15625 C 10.757812 -3.363281 11.207031 -3.675781 11.65625 -4.09375 L 12.53125 -1.328125 C 11.21875 -0.191406 9.5625 0.375 7.5625 0.375 Z M 7.5625 0.375 "/></g></g></g><g fill="#000000" fill-opacity="1"><g transform="translate(555.173056, 556.265222)"><g><path d="M 2.953125 0.203125 C 2.242188 0.203125 1.65625 -0.00390625 1.1875 -0.421875 C 0.71875 -0.835938 0.484375 -1.363281 0.484375 -2 C 0.484375 -2.65625 0.71875 -3.191406 1.1875 -3.609375 C 1.65625 -4.023438 2.242188 -4.234375 2.953125 -4.234375 C 3.671875 -4.234375 4.257812 -4.023438 4.71875 -3.609375 C 5.175781 -3.191406 5.40625 -2.65625 5.40625 -2 C 5.40625 -1.363281 5.175781 -0.835938 4.71875 -0.421875 C 4.257812 -0.00390625 3.671875 0.203125 2.953125 0.203125 Z M 2.953125 0.203125 "/></g></g></g><g fill="#000000" fill-opacity="1"><g transform="translate(561.071037, 556.265222)"><g/></g></g><g fill="#000000" fill-opacity="1"><g transform="translate(565.453561, 556.265222)"><g><path d="M 1.046875 0 L 1.046875 -14.671875 L 14.015625 -14.671875 L 14.015625 -10.875 L 5.984375 -10.875 L 5.984375 -8.25 L 12.78125 -8.25 L 12.78125 -5.0625 L 5.984375 -5.0625 L 5.984375 0 Z M 1.046875 0 "/></g></g></g><g fill="#000000" fill-opacity="1"><g transform="translate(579.82987, 556.265222)"><g><path d="M 7.6875 0.375 C 6.21875 0.375 4.9375 0.140625 3.84375 -0.328125 C 2.757812 -0.796875 1.914062 -1.453125 1.3125 -2.296875 C 0.707031 -3.148438 0.40625 -4.144531 0.40625 -5.28125 C 0.40625 -6.425781 0.707031 -7.421875 1.3125 -8.265625 C 1.914062 -9.117188 2.757812 -9.78125 3.84375 -10.25 C 4.9375 -10.71875 6.21875 -10.953125 7.6875 -10.953125 C 9.144531 -10.953125 10.414062 -10.71875 11.5 -10.25 C 12.582031 -9.78125 13.425781 -9.117188 14.03125 -8.265625 C 14.632812 -7.421875 14.9375 -6.425781 14.9375 -5.28125 C 14.9375 -4.144531 14.632812 -3.148438 14.03125 -2.296875 C 13.425781 -1.453125 12.582031 -0.796875 11.5 -0.328125 C 10.414062 0.140625 9.144531 0.375 7.6875 0.375 Z M 7.6875 -2.65625 C 8.5625 -2.65625 9.253906 -2.894531 9.765625 -3.375 C 10.273438 -3.851562 10.53125 -4.488281 10.53125 -5.28125 C 10.53125 -6.09375 10.273438 -6.734375 9.765625 -7.203125 C 9.253906 -7.671875 8.5625 -7.90625 7.6875 -7.90625 C 6.8125 -7.90625 6.113281 -7.671875 5.59375 -7.203125 C 5.070312 -6.734375 4.8125 -6.09375 4.8125 -5.28125 C 4.8125 -4.488281 5.070312 -3.851562 5.59375 -3.375 C 6.113281 -2.894531 6.8125 -2.65625 7.6875 -2.65625 Z M 7.6875 -2.65625 "/></g></g></g><g fill="#000000" fill-opacity="1"><g transform="translate(595.168691, 556.265222)"><g><path d="M 7.6875 0.375 C 6.21875 0.375 4.9375 0.140625 3.84375 -0.328125 C 2.757812 -0.796875 1.914062 -1.453125 1.3125 -2.296875 C 0.707031 -3.148438 0.40625 -4.144531 0.40625 -5.28125 C 0.40625 -6.425781 0.707031 -7.421875 1.3125 -8.265625 C 1.914062 -9.117188 2.757812 -9.78125 3.84375 -10.25 C 4.9375 -10.71875 6.21875 -10.953125 7.6875 -10.953125 C 9.144531 -10.953125 10.414062 -10.71875 11.5 -10.25 C 12.582031 -9.78125 13.425781 -9.117188 14.03125 -8.265625 C 14.632812 -7.421875 14.9375 -6.425781 14.9375 -5.28125 C 14.9375 -4.144531 14.632812 -3.148438 14.03125 -2.296875 C 13.425781 -1.453125 12.582031 -0.796875 11.5 -0.328125 C 10.414062 0.140625 9.144531 0.375 7.6875 0.375 Z M 7.6875 -2.65625 C 8.5625 -2.65625 9.253906 -2.894531 9.765625 -3.375 C 10.273438 -3.851562 10.53125 -4.488281 10.53125 -5.28125 C 10.53125 -6.09375 10.273438 -6.734375 9.765625 -7.203125 C 9.253906 -7.671875 8.5625 -7.90625 7.6875 -7.90625 C 6.8125 -7.90625 6.113281 -7.671875 5.59375 -7.203125 C 5.070312 -6.734375 4.8125 -6.09375 4.8125 -5.28125 C 4.8125 -4.488281 5.070312 -3.851562 5.59375 -3.375 C 6.113281 -2.894531 6.8125 -2.65625 7.6875 -2.65625 Z M 7.6875 -2.65625 "/></g></g></g><g fill="#000000" fill-opacity="1"><g transform="translate(610.507525, 556.265222)"><g><path d="M 7.5625 0.375 C 5.988281 0.375 4.757812 0.00390625 3.875 -0.734375 C 2.988281 -1.484375 2.535156 -2.503906 2.515625 -3.796875 L 2.515625 -7.625 L 0.15625 -7.625 L 0.15625 -10.5625 L 2.515625 -10.5625 L 2.515625 -13.359375 L 6.96875 -14.234375 L 6.9375 -10.5625 L 12.125 -10.5625 L 12.125 -7.625 L 6.9375 -7.625 L 6.96875 -4.671875 C 6.96875 -4.085938 7.125 -3.632812 7.4375 -3.3125 C 7.757812 -3 8.207031 -2.84375 8.78125 -2.84375 C 9.351562 -2.84375 9.863281 -2.945312 10.3125 -3.15625 C 10.757812 -3.363281 11.207031 -3.675781 11.65625 -4.09375 L 12.53125 -1.328125 C 11.21875 -0.191406 9.5625 0.375 7.5625 0.375 Z M 7.5625 0.375 "/></g></g></g><g fill="#000000" fill-opacity="1"><g transform="translate(623.327428, 556.265222)"><g><path d="M 8.3125 0.375 C 6.757812 0.375 5.390625 0.140625 4.203125 -0.328125 C 3.015625 -0.804688 2.082031 -1.472656 1.40625 -2.328125 C 0.738281 -3.179688 0.40625 -4.175781 0.40625 -5.3125 C 0.40625 -6.425781 0.707031 -7.40625 1.3125 -8.25 C 1.914062 -9.101562 2.75 -9.765625 3.8125 -10.234375 C 4.882812 -10.710938 6.125 -10.953125 7.53125 -10.953125 C 8.914062 -10.953125 10.113281 -10.726562 11.125 -10.28125 C 12.144531 -9.832031 12.9375 -9.195312 13.5 -8.375 C 14.070312 -7.5625 14.359375 -6.597656 14.359375 -5.484375 C 14.359375 -5.285156 14.347656 -5.070312 14.328125 -4.84375 C 14.304688 -4.613281 14.265625 -4.40625 14.203125 -4.21875 L 5.046875 -4.21875 C 5.222656 -3.601562 5.632812 -3.144531 6.28125 -2.84375 C 6.9375 -2.539062 7.703125 -2.390625 8.578125 -2.390625 C 9.390625 -2.390625 10.171875 -2.492188 10.921875 -2.703125 C 11.679688 -2.910156 12.273438 -3.175781 12.703125 -3.5 L 14.359375 -1.4375 C 13.773438 -0.90625 12.9375 -0.46875 11.84375 -0.125 C 10.75 0.207031 9.570312 0.375 8.3125 0.375 Z M 4.984375 -6.265625 L 9.890625 -6.265625 C 9.878906 -6.867188 9.644531 -7.359375 9.1875 -7.734375 C 8.738281 -8.109375 8.179688 -8.296875 7.515625 -8.296875 C 6.847656 -8.296875 6.273438 -8.109375 5.796875 -7.734375 C 5.316406 -7.359375 5.046875 -6.867188 4.984375 -6.265625 Z M 4.984375 -6.265625 "/></g></g></g><g fill="#000000" fill-opacity="1"><g transform="translate(638.277138, 556.265222)"><g><path d="M 0.015625 0 L 4.671875 -5.484375 L 0.1875 -10.5625 L 5 -10.5625 L 7.5 -7.484375 L 10 -10.5625 L 14.828125 -10.5625 L 10.265625 -5.484375 L 14.96875 0 L 10.03125 0 L 7.5 -3.171875 L 4.953125 0 Z M 0.015625 0 "/></g></g></g><g fill="#000000" fill-opacity="1"><g transform="translate(653.267809, 556.265222)"><g><path d="M 2.953125 0.203125 C 2.242188 0.203125 1.65625 -0.00390625 1.1875 -0.421875 C 0.71875 -0.835938 0.484375 -1.363281 0.484375 -2 C 0.484375 -2.65625 0.71875 -3.191406 1.1875 -3.609375 C 1.65625 -4.023438 2.242188 -4.234375 2.953125 -4.234375 C 3.671875 -4.234375 4.257812 -4.023438 4.71875 -3.609375 C 5.175781 -3.191406 5.40625 -2.65625 5.40625 -2 C 5.40625 -1.363281 5.175781 -0.835938 4.71875 -0.421875 C 4.257812 -0.00390625 3.671875 0.203125 2.953125 0.203125 Z M 2.953125 0.203125 "/></g></g></g><g fill="#000000" fill-opacity="1"><g transform="translate(659.16579, 556.265222)"><g><path d="M 0.8125 -8.875 L 0.84375 -14.671875 L 1.65625 -14.671875 L 1.65625 -8.875 Z M 3.28125 -8.875 L 3.296875 -14.671875 L 4.09375 -14.671875 L 4.09375 -8.875 Z M 3.28125 -8.875 "/></g></g></g></svg>